<mxfile>
    <diagram id="JdC-piUTVLBHBZa_3rRb" name="Page-1">
        <mxGraphModel dx="1054" dy="733" grid="0" gridSize="10" guides="1" tooltips="1" connect="1" arrows="1" fold="1" page="1" pageScale="1" pageWidth="1169" pageHeight="827" background="#FFFFFF" math="0" shadow="0">
            <root>
                <mxCell id="0"/>
                <mxCell id="1" parent="0"/>
                <mxCell id="31" value="" style="rounded=1;whiteSpace=wrap;html=1;arcSize=5;strokeColor=none;gradientDirection=east;fillColor=#F0DED8;" parent="1" vertex="1">
                    <mxGeometry x="80" y="140" width="950" height="373" as="geometry"/>
                </mxCell>
                <mxCell id="2" value="Photographer" style="swimlane;fontStyle=1;align=center;verticalAlign=top;childLayout=stackLayout;horizontal=1;startSize=40;horizontalStack=0;resizeParent=1;resizeParentMax=0;resizeLast=0;collapsible=1;marginBottom=0;fillColor=#901C1C;fontColor=#FFFFFF;strokeWidth=2;fontSize=20;strokeColor=#901C1C;" parent="1" vertex="1">
                    <mxGeometry x="160" y="180" width="320" height="270" as="geometry">
                        <mxRectangle x="160" y="220" width="160" height="40" as="alternateBounds"/>
                    </mxGeometry>
                </mxCell>
                <mxCell id="3" value="+ id: number (int)&#10;+ name: string&#10;+ city: string&#10;+ country: string&#10;+ tags: Array [string]&#10;+ tagline: string&#10;+ price: number&#10;+ portrait: string (JPG file)" style="text;align=left;verticalAlign=top;spacingLeft=4;spacingRight=4;overflow=hidden;rotatable=0;points=[[0,0.5],[1,0.5]];portConstraint=eastwest;fontColor=#393C56;fontSize=16;fillColor=#FAFAFA;strokeColor=#901C1C;fontStyle=1;strokeWidth=2;" parent="2" vertex="1">
                    <mxGeometry y="40" width="320" height="170" as="geometry"/>
                </mxCell>
                <mxCell id="5" value="+ get mediaFolder(): string&#10;+ get slug(): string" style="text;align=left;verticalAlign=top;spacingLeft=4;spacingRight=4;overflow=hidden;rotatable=0;points=[[0,0.5],[1,0.5]];portConstraint=eastwest;fontColor=#393C56;strokeWidth=2;fontSize=16;fillColor=#FAFAFA;strokeColor=#901C1C;" parent="2" vertex="1">
                    <mxGeometry y="210" width="320" height="60" as="geometry"/>
                </mxCell>
                <mxCell id="7" value="" style="shape=image;verticalLabelPosition=bottom;labelBackgroundColor=#ffffff;verticalAlign=top;aspect=fixed;imageAspect=0;image=data:image/png,iVBORw0KGgoAAAANSUhEUgAAAmgAAADwCAYAAAC0RZhOAAAgAElEQVR4Ae2dPbMkxZWG9VsYQ+OJEK4I4Wol2avFXgb8Rf6yyCMAIQ8YFMgaAgzWY3DA0uAhQwgTA0VgasGRvO6Nt+bm7bo1VV0nT57Myur7VERHVXfXx8nnnDz5VmZ9/OjIBAEIQAACEIAABCDQFYEfdWUNxkAAAhCAAAQgAAEIHBFoBAEEIAABCEAAAhDojAACrTOHYA4EIAABCEAAAhBAoBEDEIAABCAAAQhAoDMCCLTOHII5EIAABCAAAQhAAIFGDEAAAhCAAAQgAIHOCCDQOnMI5kAAAhCAAAQgAAEEGjEAAQhAAAIQgAAEOiOAQOvMIZgDAQhAAAIQgAAEEGjEAAQgAAEIQAACEOiMAAKtM4dgDgQgAAEIQAACEECgEQMQgAAEIAABCECgMwIItM4cgjkQgAAEIAABCEAAgUYMQAACEIAABCAAgc4IINA6cwjmQAACEIAABCAAAQQaMQABCEAAAhCAAAQ6I4BA68whmAMBCEAAAhCAAAQQaMQABCAAAQhAAAIQ6IwAAq0zh2AOBCAAAQhAAAIQQKARAxCAAAQgAAEIQKAzAgi0zhyCORCAAAQgAAEIQACBRgxAAAIQgAAEIACBzggg0DpzCOZAAAIQgAAEIAABBBoxAAEIQAACEIAABDojgEDrzCGYAwEIQAACEIAABBBoxAAEIAABCEAAAhDojAACrTOHYA4EIAABCEAAAhBAoBEDEIAABCAAAQhAoDMCCLTOHII5EIAABCAAAQhAAIFGDEAAAhCAAAQgAIHOCCDQOnMI5kAAAhCAAAQgAAEEGjEAAQhAAAIQgAAEOiOAQOvMIZgDAQhAAAIQgAAEEGjEAAQgAAEIQAACEOiMAAKtM4dgDgQgAAEIQAACEECgEQMQgAAEIAABCECgMwIItM4cgjkQgAAEIAABCEAAgUYMQAACEIAABCAAgc4IINA6cwjmQAACEIAABCAAAQQaMQABCEAAAhCAAAQ6I4BA68whmAMBCEAAAhCAAAQQaMQABCAAAQhAAAIQ6IwAAq0zh2AOBCAAAQhAAAIQQKARAxCAAAQgAAEIQKAzAgi0zhyCORCAAAQgAAEIQACBRgxAAAIQgAAEIACBzggg0DpzCOZAAAIQgAAEIAABBBoxAAEIQAACEIAABDojgEDrzCGYAwEIQAACEIAABBBoxAAEIAABCEAAAhDojAACrTOHYA4EIAABCEAAAhBAoBEDEIAABCAAAQhAoDMCCLTOHII5EIAABCAAAQhAAIFGDEAAAhCAAAQgAIHOCCDQOnMI5kAAAhCAAAQgAAEEGjEAAQhAAAIQgAAEOiOAQOvMIZgDAQhAAAIQgAAEEGjEAAQgAAEIQAACEOiMAAKtM4dgDgQgAAEIQAACEECgEQMQgAAEIAABCECgMwIItM4cgjkQgAAEIAABCEAAgUYMQAACEIAABCAAgc4IINA6cwjmQAACEIAABCAAAQQaMQABCEAAAhCAAAQ6I4BA68whmAMBCEAAAhCAAAQQaMQABCAAAQhAAAIQ6IwAAq0zh2AOBCAAAQhAAAIQQKARAxCAAAQgAAEIQKAzAgi0zhyCORCAAAQgAAEIQACBRgy0I3A4HI9zn3YWcCQIQAACEIDALggg0Hbhpp0beTgcv3n05+MHL75wfO2nPzn+7sdPDR8t/+n5fz9++dGHj4XbzouJ+RCAAAQgAIEoAgi0KJJpP3M9RJf2WyqrYf6Pb78dRFgSZUvzP/z8Z8fvvvqrYY+sskrAG2+rO2YFCEAAAhBoRQCBFkz6rZ//7LqHaEmM7P33Lz/6yERN4kzCK6e8j967b9o3Ky0TUK9kDnOt+78v/9fyDvkHAhCAAASaE0CgBSNHoJ2A5oqzJCo0HMrkJ4BA87NjSwhAAAK9EECgBXsCgfYYqK4rS4Irdy6BweQngEDzs2NLCEAAAr0QQKAFewKB9hiot/csiblvvngU7JnbszsE2u3xNSWFAAQulwACLdi3CLTj8bu/feXuPUsCjWvR/IGJQPOzY0sIQAACvRBAoAV7AoF2PH796afFAo2L1v2BiUDzs2NLCEAAAr0QQKAFewKBdjzqLs/UE+adI9D8gYlA87OrvqX3ESie7aoXhgNAAAI1CSDQguki0OhBCw6p7N0h0LKRNdlAj53Rw5rlnxYfLhNo4lYOAoFqBBBowWgRaMfjv374obgHzfqstWD3XcTuEGj9udHzTEBv7/N4u7/oLR1MEIDALgkg0ILdhkB7DNQjEsYNy//9/e/Bnrk9u/OwZ0i5Xnz88/vvsx/YPK4Lpcu8oaOeb9kzBGoSQKAF00WgPQaqx2R4G5bP3nwj2Cu3a3cItH78LXH2zq/+zV0XvHVovJ3eeYtI6ycmsAQCVgIINCsp43oItBMoCa1xQ2FZfufXvzztgCUXAQSaC1uVjdQzaYn72uvouYQaZmWCAAT2QwCBFuyrIoF2987xdzv45FwfNog0lenHT61+3n/+N8P1a8EuuXW7Q6D14fKHr76yGvOWehG1DiKtj7jACghYCSDQrKSM63kF2vv/cbmvN9L1ZB//9uWT+ByLtbt3jq898/SRO86MAWZYDYFmgFR5lc8dvcdRQuzcfjTcqmFXJghAoH8CCLRgHyHQloFKqOkhtupV00eijFc6LfPy/oNA85KL2a5XcZaEm0TaUc9VY4IABLomgEALdg8CLRgou8smgEDLRnbawPNA2NE2eqxFEkKmefQlDePe6TPLw127I7sHwZb7/USNJQhAoAIBBFowVARaMFB2l00AgZaJ7HAYhv0e3X/3KOFS8jGJsivh9Ifnnj1GPk5G+9I+rTYoTkrK+tkbrx+/efRneuMyw43VIWAlgECzkjKuh0AzgmK1agQQaHa0urPRw8sqgpbWixZnqcTf/e2r4ZrOpePW+F03H3ypB+KqB44JAhAII4BAC0P5eEcItGCg7C6bgEdwDENe2Ufa9wYajtQzwmqIlnP71E0xkT1nUy/oOs9zx6/1n+KOGxCm3uA7BPwEEGh+drNbItBmsfBjQwIItHXY2deKnbmeK0vw3L1zVC9X7Uk34GTZFVQ+3YCgV70xQQAC5QQQaOUMb+wBgXYDB182IIBAOw9dw5pb9JxJMOU8Q/B8Kdb/9TwoOkLU6flvTBCAQDkBBFo5wxt7QKDdwMGXDQgg0M5D13BuhBDJ3YcEU+tpeP5gUO9YTnnpRWvtaY53iQQQaMFeRaAFA91yd9bHDmxp48yxNxNoa7xmbG39k679yhEaUetuIc4SW70+Laoc1v1sWd5UbuYLBNbq6dz/C7vi57oEEGjBfBFoJ6AaSvJ8TntouHSVlGTv1w8fHvXIhU/+57+vH0Mg0TP+fPDiC8N/WkfrapvhhdTj5NbQ/PGhmgi0q3LqonA9amHMS2zmWOmxDE9wGhveYHmLC+i3Fivqzcp5/IZVhJ1b78GLL6x6U9fi6e5Pz6fmTRarhs+s4MlzaZuZ3cX+dPUYmZTX1IOsawV19+2SD/Wf1lE9Tjnu+pEqqvtMTQgg0IIxI9BOQD0slBiaTYfDICAlLpSIoq5LUmJTUlNCHO5qa5zQqgq0w2EQZCqfyrmU4C2/y06xV0PV6hENEksW26Leiashxh6m62ekRT0Yd2XY1FKP9RYRky9mjrW16J361Js7qt09fVVP9VYLTz4455ct6u2U9235jkAL9rRHlKgyXOK7OD0sLIm92GWHw3DWHp24lpKaepQk1lqJEE+5VhuKyswk9lo8S8si0BSDEjQRn+JYDdyBetIiyqQbHZZiPf1urcdekS9B1Mtk4ZG4TOfRd/TqhDCdcE6PVeN7qrc8XqVONCLQgrl6RIkqDgLtqSHpWxO7y21XIkPHqJGs1vap47YQIdECTUMb3oZ0jcn0/9qMrALNFV+3ZCNLz5e1Hlv8MY2R9L2X9/h+cO8/XfnEysgSVhJI6i3z9uQlpt65yqLjD73hFoNZx0QAgWbCZF8JgXZi5WERmbROlhyHYTmPcPEmrHPbqYyDUBsbGLjsKedsD9rhcNQjE86VpdZ/YlQj2VsEQa0YDHTxpruKFGjq1fOKitmYbUxGPZLeOhDyyJXD4fjFe/fdDL22L22nuqNn8LUaLWjs7uaHQ6AFI/eIEgU7PWiVetA2FBlLSSz9LvFTY2ggQqBJHLXqNUs85uY6K49M9gi08oQXKdBkzQNnD5SE3daP8ygZ3pS4K5lURz11fa6eRf9W6wSrhNcet0WgBXsNgXYC6mER2Xsh8dNrAksJsUYi85R53BuhxC+7ko1bz2VblJDtXqBd3R0rH+i6xfEdjvqu4eaBxdV6p9rWbilaoFn2txSDQ29Nu6I/cSRPXVNZxvXtiZ0aftjqNWVLfpj7XQJ6a/8YUHa9CgIt2D0eUaLgpgcttgetN5Exl8DSbxJDwyM6gmLR02ikBqNXburNixBpXQq0yR13liE/raObTyTg5LPIXsa1MLQIqtwTLUuZU30ZzxXrW00lw5ti6J3Uqzxm0Pvy0AvuLewt3w6BFhwACLQTUA+L3MR+OtppSQ15Tz1AlgSqBipKpHkFWq/iLPFLIvLk6fylngSa4lR33EUMJUusXT+nKh9L1hY1BJrFLykOpvOthjm9w5slOW5v4iz5CpGWVcWuV0agXaOIWfCIEgUxPWhxPWhqrFJi2NNciXvoDSkMRa9A24OoLR0ysQiBkgbU5LqKF3bL9xExdK4cNQSaRJa3rsqnW0xv/+oXLpu9NwfsVZwlvyLS8qMUgZbP7OwWCLQTHg+L0sZRQz4pIRTPrx7q+dozTx/feu7ZG58bDzKdeZCm99gRQzYegeYdYvKWs2S7kp7GrQWaxJPHP7m8hsaw0gOSawg0ZQ0vF/VAtp7kx1yfpPU9NwdUE2fnHlwcmNdS2YfnQbZ21o6Ph0ALdp5HlCh46UEr70FT0izuBbp75/j+8785qiFXQ3Ru+EQPmdSrg/S0+OFVOkp2AUnt0R/fK4pKb0OXbftEwIrb+CNhey1kA7gk+1Q+77SlQGt9YbfqQo3etFoCzbLfFAPTubZtOelNGlMbLN89w/QSNZZ9m9e5ynHqjRY3CUblOc31UV7T7/r/k1dfOb6td7kmIVdYj3UiWCMmW/q+5bEQaMG0EWgnoB4WJT1oSn7mJDVNNFdJqyTRa+giQqgpiZ0ThifC80u1BZqE14OX7h1V3rXeAJUjidghyU+5O78P11vNF//sr1sJtGo9ICv8VJ9KehznYKqOrNUzbz329uRKMLWcVL41BnP/5+aXkJNOxcjdO0NuUvx7covq+XV+W4m5uXKPfys5wWrp4x6OhUAL9oJHlCh46UEr60FT0vEmTQkOiYioKSKRKZF6p1oCTZy8CV5lUZIfBFJAT6M3yQ/HX2lgvOJiyV9bibPUKEr0RIq0mgLN4p9UrvFcZWw1Wco/ti0te+Iqoi6r3ionRU3qWRtORFfqUSr33Lx0lCCqLL3vB4EW7CEE2gmoh4UniemISkBziWDtNyWatV6gU4nsS9pnSRLzcpCFEUl9yk1DHZ4z7zlipWySbbm9EbLFIgBK2E/Lu7U4S6xUpqihJYtA8TJUjCWbc+eeeJj6y/Ld21OfK5IirqfVJQdR9XbMprQOl44SjG255GUEWrB3PaJEiUgJbfxQyi2XvcNHU5QeFt7E7n0fXvTLiscMlBjf0fUbzjNNb4MTKtDu3qnysMlSNmLquZ6npUBTr5XX99fX/KRrf8ZzZzzpYvqIxrqmQFP98cav7t5uMSlHefyacyI4CCDncZJtOqmqOSmWdP1tOl7uXHWR6TwBBNp5Ptn/ekRJbmDXXj9quNXDwivQPNeueBr43IBQEvMmdO8jJbwN3Fxc5Z715/AZ2Dz3rDvBe87CWwk0r981HKVeD3GfNujap8SR4uL6wu1MsabXi5VOtQWaLjeYi8W13zzxkMvCUvY5O3Nzzee/f9PFIB27tjgbc/vgpXsuW1v4a2znHpcRaMFe84iSVKl6me9NoKkXzMMu8rqzc2HkbXAeOHsEogRaizNciRCPuE7+VoOZM7USaNkvmb97J/v6PpVdYi6xsM5Le8gtIsV7oiVfSoh6Y8J7UmONIe/wZk6clvae6dKKllPJiVaLHNOSRfSxEGjBRBFoJ6AeFp7Ebmkw5hqvaQ/FyfL4JU+D42EhyyMEmhr+VpNFNM35T7/l3r1nOZaXe+Kla72W7J37vfQ6SIkS9bzN7XvuN8VHyWSpb6UMLX6qUbY1Li3qcem1Zy3zWuJliYk5f4kn0zIBBNoyG9c/HlEyF7hb/ra3HjRvD5XLwc6NvM9N8hwuQqC1TPIlPSa5YsPS8JeKi5xelqiLuIdel4zh4pJeNEtjXMrQ2yuuvKl4qjF5b0RSzOVMYufN/7knLDl2ra3rzTuKJ6Z5Agi0eS7uXxFoJ3QeFp7E7k2cLUXIYOP4Qm/jssdGb6JMjUJug3LyuH/JIpySfeN57hm45TieGEwll7/G9p1b1g0kkZNEjbWHJ1fYju1sIdB0PG8c14pf741IOXW4RJgqbnOONfZpxLIlLubqQ+71eRG27mUfCLRgT3lEyVzQbvnb3nrQvAKtpBfBEzZKnrkfz3G8DZtibqsk703usjmnUaot0KyxWIuz9fji5u1psviqROSmmNfQrScPRhw72ZDmijGPLbnXkVric8mOiBtAUnm9c0/7l3uS5bVtj9sh0IK95gnQpQq31e97E2jeIc6SXoTgsAndXYlA2/Js1lt3cm72sDSAJQ28lb2EVK1Jj5uw5A7vBfWtBFrJ0LdsjJxyhO+YfU5syl5r/IyPkZZzTlQi2Yz35b2UI9pfY5v2vIxAC/aet5FJlayH+d4EmvfsVqz1fsRjpZdKB4eWeXclSV5DLFtNHztf1ZUjNGoKNAkKS/2Nql9LfrLWh9zenXS8VgJNx/M2+NHXYnnqlEfoW+Jnbp3aMZV8vza3xMac/Tl1eM2GS/ofgRbsTQTaCaiHhSepWRvGucSg39RrNDxl/UKEmqcxEQcP+5O3y5e8Q1o5jXFNgWZtnGr2niUvWGLAO7RkKWdULFmONVevvWVL/MZzq+Cd2pHbG+0tq46ruO5h8ubiXFY9lLWFDQi0YMoeUTKt2Ft/jzob87DwJnZLg7TGVUNDXz98ePzn998/7lXbqWDzstg6SXobqBy7awo0i8CMFA7nUpd12F8Nau5k8ZO3Hs/Z4o3nqGtMvcObuUOOlvhZymFDWZWvOvi0zPtz8XJJvyHQgr3pCc6lSrfV73sUaJaGN4enXosjwfbZG68Pok0J8IZwmybC4Dgq2Z23Qdt6mMHbU5EzVGeJE6+4sAzHRdWttfiw9mR4hrRbCzSvcFE9iJje/tUvTEPX4/zi8bMlfsbHGC8rX6m8PXx0EjK2zbLc6sQlIh5a7gOBFky7SKAZH71w9j19AfuIekiph4W3cVSD5EkMluQxXUc26qNkKBGnxPro/rvHWREXHF+W3cmuqc2W72p4t54sdk7XyWkMawo0yzV0OcOxpb6w1L/ci9hlU2uB5q3bygeeHsIx99yHDqfY9Axjex/jkY6593mpr8Z+u5RlBFqwJy1Jca4i5TQywSZX252HhVegqRCWxneOffRvahgkktQYa8j0+vq2RkOmXoGWOyRTI3A8Ijun7lhixBuDFu46fqvJ0vPjERKtBZp4eXuXSnuFPcetGT/Ruaqn/fWQf1rVTetxEGhWUsb1PKJElSSnkTGasvlqHhbe5JYKq4d/9pR0ki0ql66VkmC7vk4kGR08twiFZNd4HmyGa3eemMmpOzUFmqUHxCOIXCCNj2zw2LOFQLMccxzLaVl1oWRSvU37ss5zrokc2+aJfatNe1jPM9w+5neJywi0YK96K1lOIxNscrXdeViUCjSdhendhj0nJPUSKYlf96wFewCBtgy0pkCzDHH21oMm4ZM7WcRSaT2es0nXWXnqtbdnxlLOOXu8x/P0Hs8df6+/eWJxLk4u6TcEWrA3PaJEFQqB9tSQfCMS+x5EWkqi10ItMA49Ak2NQw+Tp/7k1J2aAs0yHObtXfH4JsXYubmnUbQIl4h6PC2zxXdzZfWKYvlqbn/nfsuJxWn5zu33NvznicUpw0v7jkAL9qingVHlK6nYwUUI252HRVRil0jrdbhzLtnqNS3DXaIB9D0CLYp7qfmemMmpO5ZG3svCcrehd9+5XC0iSnHouTDbsu8a5fTeLOC1RdvN1dVzv3mGjJNvz+33NvyHQEuRcJoj0E4sQpY8DYwqX04jE2Jog514WHiT6VJx1CD3PuSZkq/KPgx7LhXG+DsCbRlUTYFmES7ydYuGyNKb561rlnJ6973sucf/eGLbw9xSxlRv07y0zGk/t3Xeol6sxVdv/yPQgj3iESWqkAi0uCHOqUvVm/bxb19+LNT0GJIfPz5Wj/MIkeZpxEoblylz73dP/cmpOzUFmrWHRzbUnuTPtfj2DrdaxEuteLIce67cEqw5k2d408sz2TVn9236jZsEUiSc5gi0E4uQJU8Do0qY08iEGNpgJx4WtRK7iqsGVEMQes7b9bPkOhRrYlDSk4ZAWw7umgJNR7Ww1/V+Jf5dLt3jf7786MNVcaac4x2Os4ikmvXYczG9tskZzvUcw3tzQPKn55jyo7Z767lnd/9JHJifCCDQTixCljyiBIF26tGqmdjHDlYy1UM61bP2th7NkR7w24lgU0PvnSwiQTE3/rTivlYmT/3JObmpLdAs16GJux5wXGOS8JMvx75dWs4RLGNbtxZoFh/Oldn66icJ17ntz/2WE4NjluNlT+zLptKeu7ENLPdFAIEW7A9vJYuo4MFFKd6dh8VWQkGNlRoeNbAPXro39LK99szTJ+G2wdDooz++5/IBAm0Zm6VxL4lBxZG1J6T0IapPlPJwOFofRVHSqG8t0MT4nFha+s960mN5nt30GN7eyLEPLQ8Wnh5X33NedTY+Hsv9E0CgBfvII0pUyRBo9a5BK3GxGgNdG6HeNjXun7z6SjPxpoZex8+dEGjLxGoLNB3ZcozU0P7low+Xjc3553AYelLSftfmJcNxWws0YfHEuJis1SdxWWM3/d9bT6futTxHb3psfZcoZ7pMAgi0YL8i0E5APSxKei9OR26zNBVv6nkb7hgNHC5VY587eRqvXrh7Yibn5MYinkpZKC6svWhqYD+XjwteA6bHs+T4vKT3TLHYg0Cz2DAnZtZ6LT3Dm6U8U/22xOZcmRRrTJdJAIEW7FdPA6NKl9PIBJtcbXceFqWNY7XCZOxYZ+FK9NfXtk2u95pLsku/qeHNnXIa63TcXrh7Yian7lgawQgW1mvREn/5bLhxIEeoHQ7Dq8Nkb9qPZV7Se6ZYtIijCIZrcZ8jghOXtfrkqTtRdx96xGEqV6lP11jz/zYEEGjB3D0NjCpZTiMTbHK13XlYtEjs1Qo8s2MNjZY+h21tWGZ6WE8j0wt3T8zk1J1WAk0++ZPuFs4U5+qNGS5ml1BLH+0sLR8OwwONH91/N6vXLNmh8pdOvQg0iy9TucfzJTGj38frWZYjhxc9x082RlwDVxoXbB9PAIEWzNTTwKiS5TQywSZX252HRS9CIRKKEm/JWw0k8nImBNoyLUujHhWD8vtwo0mmSFM+UO+Q/CjB9tkbrx/1HC8tW28CSA33eP7BS/eWwWT804tA04nLuHzW5SWR6unBihZGnl5BlTv3OW8Z7s5fdXQyMT6xOLucf5RbsQUCLdjNHlGiCoZAc94ksJNkMDTWP/2Jq0FZu25mGsIItCmR0/eWAk1HHcTMBncAT8WKenFze2JP1G4u9SLQZJUn1peu2fLcRal6HTl5bxRYKlOkbZZ9ff7G68OJhE4mcj7RHC227mEdBFqwlxBoJ6AeFrm9F0oCStI5H+/jK04l8y1ZxMG0YdV3lTFn8jRaudxz7MlZ1xMzOSc3Fh9Esxh6ZjYUaRJnkQ1gTwJNvctzdWbtN5VhPOn6v7Vtpv/n1svx8ZaWLWyndqTv1ue8LR279Hdvj6bsjzp5KC1Db9sj0II94mlgFKA5jUywydV252GR2zh6jrHVc4O8yTe3IUCgLYf0FgJN1khIeIc7UwPsmWtoPVKcqSyWOM6tx8seO/+PGnbPsOB0SFDfc/lORd55S23/essj21Xvt5ysb7CYcr7Eti/KDwi0KJJX+/EIBgXsJQaph0VuYvcMS2w1HKCGcpqcLN8RaDffejBlllN3thJoSg/yf+kNI9Oyn/uut2TU6JnoSaCJq8WnU07KAWM2yjvTdc59z81TOc2MRywmW7fsRctlmGzOvYQjh+Xe10WgBXvQI0oUqDmNTLDJ1XbnYZGb+LzXbGyVyFJSypkj0C5DoKmiSRRIOA2vFnPcPGCJG/XU1Wz0ehNoFnvmuKWbbzzbR98cME7CHntS+ZQ/9Vy81pO390x2R/fwti57zeMh0ILpekSJghSB5rtJwHu2ucVwgJ6XlBJpzlw9BDkTQ5zLtCy9LbknCctHW/5HjdL7egxH4LVpEmYq37hnaNkC/z8WAdGC4bgEnphPOUAnQDn1UevWFhWe8qQy5J7QjTl6lnPe/5psTPPIx5R4bO99GwRasIcQaCegHha5id17kbASROteNM9t/LIz92zdk9xzuZ+8HLvkiZmck5teBFqiJrFz3aPmEWt37wzXtrUQZmObUwO7NG8dT7kPBk52q7dJtqbvlnkLAWQRwedsHd5OkRxWce7hN7Y7N7dVLEqXu0agBbvF08AoYHMamWCTq+3OwyI3sau3wHORsJjrWMPT26sRuLljj3CSnblPKvccJ5f7zZLFffPETE7d6U2gJXKKY51sSKxdv4FCgm3mo54y9b6pLGrIW08W8dA6nrx54IMXX8gSZ6qPrZh76rHsS5+Hr75S9AqxtbiSOCt5Ll/rGFkrT4//I9CCveJpYFShchqZYJOr7c7DwlNpSxKZjtdCpH3x3v3rxJkSqGXeiofnODUCx8xl2h0AAAuPSURBVBMzOXWnV4E2x1LDaBLnEgSa63vt4cs5O6a/9SjQZKP3cgdLPUzrtKwnFs7JrqV5rfz23Vd/ze55nNpI79m0Zj35HYH2JJOiXzwNjAI3p5EpMrDhxh4WngRYmsiuk5geehs9HQ5HrzhTXHiGUzyC1cM9GpX254mZnLqzJ4FWg2/EPi31bYt4stg1FQm531uLiijRqd604US0MMep10zDp7ncpuvrbmamdQIItHVGWWt4GhgFb04jk2XQhit7WHgTe8TjCySGIpLYgPxwGPblGUIZJzPPxcgItOWgR6Ats7H+YxFC3npstWFpPU/sj+vb2rKnPi7ZavldPaYRuS2VSzluuPY2vYFlzYir9ZIw815Oko6f5q05rhWz1/8RaMGe8YgSBS0CzXcXZ3KfpdFIyeHcXA3LDaGWc8Z5lcyUALWPc8ex/Kd9eCZPI7VVgzotn6f+5NQdBNqUeP53S13bKp68NwvUrI/5hG9uITET/ZBj+Ucnj4/uvzsINuUsnZzqo+WvHz4c/lMPXsl1ZnNcaz4C5ia5/X9DoAX70NPAKIhzGplgk6vtzsOiJLHrZdBzCcH7mxKTEpSSla650Fnk9IW/Smj6T4lOgirqDFMcvGeZCLTlkLYKNDVSfOYZfHH/3dV6VlKPl723/o/3ZgFLjpAw3Woa7lb33OU7umnAUsba66j+MdkJINDsrExrekSJKgUCrawHTc6JHg6onazO7b/kWhcE2nJVtQi0c37hv9NdgudYbCXQ5Pmo67bG5duyPCmalRMin5s3Ll+LZd2hzJRHAIGWx2t1bQTaCZGHRWkirDEc0CJ5jY9RepaJQDvF4HSp5hDY2Ie3fXnLE07LEGyuf3oZlturSEOcTTOR7TsCzcbJvJZHlChZbJnQzIXLXNHDolSgyUQ9kiDywtrcZF6yfqk4U/kRaMuBqtgo8Q/b2nrQ1Iu15RR93ZT3coMaDCRA95TfInJaDY572CcCLdhLHlGipI9AKx/iHLtSCXVPSUwxEJXIEGjjSHhy2cMHYWYTZonT1oJGdSnZUjp/8OILTwbRxr/sIr/dvVP1nbAbu6DJ4RFowZgRaCegHhYRPWjJAiWx69fodHax7LjRiH65tUeARHJP/D1zT8zkntyUvB5s7DeW50Wb9+5jT7wsbaPrUaP8o3jpdRqEaIc3D+jkWL3VTGUEEGhl/J7Y2tPAKJHkNjJPHLjDHzwsaggFXbfRa2+aXtkT3duAQFuvDB8HPAYlSgBc0n5Uz6Ljed2b82t46sHUFzXy0by1/l/FW718XdxAcPfO8ZNXX+nijRd+ov1siUAL9oVHlCDQTmfitRKizqh1tjkItQ7OOKN7zcZh7GmYanEf22VZ9tQfz8mN4uGdX/8yrJdl2rDfxu89iTPFWsTNAltfS2epM2kdlVcnfJsItbt3hmPLBqY4Agi0OJbDnjwNDAKtvkBLbtbZ5nWPWmuhdvfO8MBJCUUJhFoTAs1Ottchol0JvKvGuZees7H3S59L2GOZxuWbW5bNurRjeLhtzRx3lc/UY4Ywm/NE+W8ItHKGN/aAQDvh8LBo2ZOjpKJEdt2rViOZXSUxHUfHqynMEvlBoKksGZ+W3JOdc3NPzHh60MbHTg3a2+pRy2B229eVAEhxPebZ0/IgwJ3Xn5bGVQ8cdP1cWI67qhvyexJlLfJZDxy3sgGBFkxegasKkftRIrm0ycNC22wxqZFWz5qOr2GC67PPcYN9LtGP1nvruWePD166N9zBtMWZpY6psuR8erkQ2hMz0XVHscDnPIO9NMyy09sbqfpzSZMu2lc9Vx1TftIJiXLV3ImG8p/+0zpaV9uIh+oFUzsCCLR2rDnSzggouUvsKKkpOUkI6JPEd/quh1jqfyXAvTRcO3MF5kLAReDLjz50CbReepRdhWajiyGAQLsYV1IQCEAAAhAYE5DQ8vSg9fCokHE5WL6dBBBot9PvlBoCEIDARRNQ77dHnGkbhvIuOjR2UzgE2m5chaEQgAAEIGAloF4wj0C7hJsDrIxYr28CCLS+/YN1EIAABCCQSeAf337rEmcSdJd2c0AmOlbviAACrSNnYAoEIAABCJQT8PaecXNAOXv2EEcAgRbHkj1BAAIQgMDGBHT9GDcHbOwEDh9CAIEWgpGdQAACEIBADwQ+//2b7uFNbg7owYPYkAgg0BIJ5hCAAAQgsHsC3t4zbg7YvesvrgAItItzKQWCAAQgcDsJlPSecXPA7YyZnkuNQOvZO9gGAQhAAAImArpz0/tydG4OMCFmpcYEEGiNgXM4CEAAAhAIInA4HI+Hw/GbR3923xigR2vw5oAgf7CbUAIItFCc7AwCEIAABDwEdIG+3p1p/Xz2xuuDsPL2mo0fYsvNAR6PsU1tAgi02oTZPwQgAAEIrBLQNWBj0dRqmd6zVdewwkYEEGgbgeewEIAABCBwIrCVQNM7O5kg0CMBBFqPXsEmCEAAAreMwBYCjUdr3LIg21lxEWg7cxjmQgACELhEAlsINHrPLjGSLqdMCLTL8SUlgQAEILBbAq0FGtee7TZUbo3hCLRb42oKCgEIQKBfAq0FGndu9hsLWPaYAAKNSIAABCAAgc0JtBRon735xublxQAIrBFAoK0R4n8IQAACEKhOoJVAe+fXv6xeFg4AgQgCCLQIiuwDAhCAAASKCLQQaBJn//rhhyI72RgCrQgg0FqR5jgQgAAEILBIoKZAe+2Zp48May6i549OCSDQOnUMZkEAAhC4TQRCBdrdO8ff3b1zTMKMXrPbFEmXU1YE2uX4kpJAAAIQ2C2Brz/99Pj+879xfx68dO/48W9fPn7y6itHiT3u0txtKGD4FQEEGqEAAQhAAAIQgAAEOiOAQOvMIZgDAQhAAAIQgAAEEGjEAAQgAAEIQAACEOiMAAKtM4dgDgQgAAEIQAACEECgEQMQgAAEIAABCECgMwIItM4cgjkQgAAEIAABCEAAgUYMQAACEIAABCAAgc4IINA6cwjmQAACEIAABCAAAQQaMQABCEAAAhCAAAQ6I4BA68whmAMBCEAAAhCAAAQQaMQABCAAAQhAAAIQ6IwAAq0zh2AOBCAAAQhAAAIQQKARAxCAAAQgAAEIQKAzAgi0zhyCORCAAAQgAAEIQACBRgxAAAIQgAAEIACBzggg0DpzCOZAAAIQgAAEIAABBBoxAAEIQAACEIAABDojgEDrzCGYAwEIQAACEIAABBBoxAAEIAABCEAAAhDojAACrTOHYA4EIAABCEAAAhBAoBEDEIAABCAAAQhAoDMCCLTOHII5EIAABCAAAQhAAIFGDEAAAhCAAAQgAIHOCCDQOnMI5kAAAhCAAAQgAAEEGjEAAQhAAAIQgAAEOiOAQOvMIZgDAQhAAAIQgAAEEGjEAAQgAAEIQAACEOiMAAKtM4dgDgQgAAEIQAACEECgEQMQgAAEIAABCECgMwIItM4cgjkQgAAEIAABCEAAgUYMQAACEIAABCAAgc4IINA6cwjmQAACEIAABCAAAQQaMQABCEAAAhCAAAQ6I4BA68whmAMBCEAAAhCAAAQQaMQABCAAAQhAAAIQ6IwAAq0zh2AOBCAAAQhAAAIQQKARAxCAAAQgAAEIQKAzAgi0zhyCORCAAAQgAAEIQACBRgxAAAIQgAAEIACBzggg0DpzCOZAAAIQgAAEIAABBBoxAAEIQAACEIAABDojgEDrzCGYAwEIQAACEIAABBBoxAAEIAABCEAAAhDojAACrTOHYA4EIAABCEAAAhBAoBEDEIAABCAAAQhAoDMCCLTOHII5EIAABCAAAQhAAIFGDEAAAhCAAAQgAIHOCCDQOnMI5kAAAhCAAAQgAAEEGjEAAQhAAAIQgAAEOiOAQOvMIZgDAQhAAAIQgAAEEGjEAAQgAAEIQAACEOiMAAKtM4dgDgQgAAEIQAACEECgEQMQgAAEIAABCECgMwL/Dwxfc/SBiRNqAAAAAElFTkSuQmCC;" parent="1" vertex="1">
                    <mxGeometry x="120" y="20" width="308" height="120" as="geometry"/>
                </mxCell>
                <mxCell id="8" value="Medium" style="swimlane;fontStyle=1;align=center;verticalAlign=top;childLayout=stackLayout;horizontal=1;startSize=40;horizontalStack=0;resizeParent=1;resizeParentMax=0;resizeLast=0;collapsible=1;marginBottom=0;fillColor=#901C1C;fontColor=#FFFFFF;strokeWidth=2;fontSize=20;strokeColor=#901C1C;" parent="1" vertex="1">
                    <mxGeometry x="640" y="180" width="320" height="282" as="geometry">
                        <mxRectangle x="160" y="220" width="160" height="40" as="alternateBounds"/>
                    </mxGeometry>
                </mxCell>
                <mxCell id="9" value="+ id: number (int)&#10;+ photographerId: number (int)&#10;+ filename: string (JPG or MP4 file)&#10;+ tags: Array [string]&#10;+ likes: number (int)&#10;+ isLiked: boolean&#10;+ date: string (&quot;YYYY-MM-DD&quot;)&#10;+ price: number&#10;+ altText: string" style="text;align=left;verticalAlign=top;spacingLeft=4;spacingRight=4;overflow=hidden;rotatable=0;points=[[0,0.5],[1,0.5]];portConstraint=eastwest;fontColor=#393C56;fontSize=16;fillColor=#FAFAFA;strokeColor=#901C1C;fontStyle=1;strokeWidth=2;" parent="8" vertex="1">
                    <mxGeometry y="40" width="320" height="187" as="geometry"/>
                </mxCell>
                <mxCell id="10" value="+ get title() &gt; string&#10;+ isVideo() &gt; boolean" style="text;align=left;verticalAlign=top;spacingLeft=4;spacingRight=4;overflow=hidden;rotatable=0;points=[[0,0.5],[1,0.5]];portConstraint=eastwest;fontColor=#393C56;strokeWidth=2;fontSize=16;fillColor=#FAFAFA;strokeColor=#901C1C;" parent="8" vertex="1">
                    <mxGeometry y="227" width="320" height="55" as="geometry"/>
                </mxCell>
                <mxCell id="12" value="" style="endArrow=none;html=1;edgeStyle=orthogonalEdgeStyle;fillColor=#F2CC8F;fontSize=20;fontColor=#FFFFFF;exitX=1;exitY=0.5;exitDx=0;exitDy=0;strokeWidth=2;strokeColor=#901C1C;entryX=0;entryY=0.455;entryDx=0;entryDy=0;entryPerimeter=0;" parent="1" source="3" target="9" edge="1">
                    <mxGeometry relative="1" as="geometry">
                        <mxPoint x="480" y="240" as="sourcePoint"/>
                        <mxPoint x="680" y="305" as="targetPoint"/>
                    </mxGeometry>
                </mxCell>
                <mxCell id="17" value="&lt;font color=&quot;#901c1c&quot; style=&quot;font-size: 16px&quot;&gt;&lt;b&gt;1&lt;/b&gt;&lt;/font&gt;" style="text;html=1;align=center;verticalAlign=middle;resizable=0;points=[];autosize=1;fontSize=20;fontColor=#FFFFFF;" parent="1" vertex="1">
                    <mxGeometry x="480" y="274" width="20" height="30" as="geometry"/>
                </mxCell>
                <mxCell id="18" value="&lt;font color=&quot;#901c1c&quot; size=&quot;1&quot;&gt;&lt;b style=&quot;font-size: 20px&quot;&gt;*&lt;/b&gt;&lt;/font&gt;" style="text;html=1;align=center;verticalAlign=middle;resizable=0;points=[];autosize=1;fontSize=20;fontColor=#FFFFFF;" parent="1" vertex="1">
                    <mxGeometry x="618" y="280" width="20" height="30" as="geometry"/>
                </mxCell>
                <mxCell id="19" value="PhotographersList" style="swimlane;fontStyle=1;align=center;verticalAlign=top;childLayout=stackLayout;horizontal=1;startSize=40;horizontalStack=0;resizeParent=1;resizeParentMax=0;resizeLast=0;collapsible=1;marginBottom=0;fillColor=#901C1C;fontColor=#FFFFFF;strokeWidth=2;fontSize=20;strokeColor=#901C1C;" parent="1" vertex="1">
                    <mxGeometry x="160" y="557" width="320" height="250" as="geometry">
                        <mxRectangle x="160" y="220" width="160" height="40" as="alternateBounds"/>
                    </mxGeometry>
                </mxCell>
                <mxCell id="20" value="+ photographers: Array [Photographer]" style="text;align=left;verticalAlign=top;spacingLeft=4;spacingRight=4;overflow=hidden;rotatable=0;points=[[0,0.5],[1,0.5]];portConstraint=eastwest;fontColor=#393C56;fontSize=16;fillColor=#FAFAFA;strokeColor=#901C1C;fontStyle=1;strokeWidth=2;" parent="19" vertex="1">
                    <mxGeometry y="40" width="320" height="39" as="geometry"/>
                </mxCell>
                <mxCell id="21" value="+ findByName() &gt; Photographer&#10;&#10;+ _collectTags() &gt; Array [string]&#10;+ get collect SortedTags() &gt; Array [string]&#10;&#10;+ sortByName()&#10;&#10;+ filterByTag() &gt; PhotographersList" style="text;align=left;verticalAlign=top;spacingLeft=4;spacingRight=4;overflow=hidden;rotatable=0;points=[[0,0.5],[1,0.5]];portConstraint=eastwest;fontColor=#393C56;strokeWidth=2;fontSize=16;fillColor=#FAFAFA;strokeColor=#901C1C;" parent="19" vertex="1">
                    <mxGeometry y="79" width="320" height="171" as="geometry"/>
                </mxCell>
                <mxCell id="22" value="MediaList" style="swimlane;fontStyle=1;align=center;verticalAlign=top;childLayout=stackLayout;horizontal=1;startSize=40;horizontalStack=0;resizeParent=1;resizeParentMax=0;resizeLast=0;collapsible=1;marginBottom=0;fillColor=#901C1C;fontColor=#FFFFFF;strokeWidth=2;fontSize=20;strokeColor=#901C1C;" parent="1" vertex="1">
                    <mxGeometry x="600" y="558" width="400" height="210" as="geometry">
                        <mxRectangle x="160" y="220" width="160" height="40" as="alternateBounds"/>
                    </mxGeometry>
                </mxCell>
                <mxCell id="23" value="+ media: Array [Medium]" style="text;align=left;verticalAlign=top;spacingLeft=4;spacingRight=4;overflow=hidden;rotatable=0;points=[[0,0.5],[1,0.5]];portConstraint=eastwest;fontColor=#393C56;fontSize=16;fillColor=#FAFAFA;strokeColor=#901C1C;fontStyle=1;strokeWidth=2;" parent="22" vertex="1">
                    <mxGeometry y="40" width="400" height="39" as="geometry"/>
                </mxCell>
                <mxCell id="24" value="+ filterByTagAndPhotographerId() &gt; MediaList&#10;&#10;+ _sortByDate()&#10;+ _sortByLikes()&#10;+ _sortByName()&#10;+ sortByCriterion()" style="text;align=left;verticalAlign=top;spacingLeft=4;spacingRight=4;overflow=hidden;rotatable=0;points=[[0,0.5],[1,0.5]];portConstraint=eastwest;fontColor=#393C56;strokeWidth=2;fontSize=16;fillColor=#FAFAFA;strokeColor=#901C1C;" parent="22" vertex="1">
                    <mxGeometry y="79" width="400" height="131" as="geometry"/>
                </mxCell>
                <mxCell id="25" value="" style="endArrow=none;html=1;edgeStyle=orthogonalEdgeStyle;fillColor=#F2CC8F;fontSize=20;fontColor=#FFFFFF;exitX=0.004;exitY=0.081;exitDx=0;exitDy=0;strokeWidth=2;strokeColor=#901C1C;entryX=0;entryY=0.25;entryDx=0;entryDy=0;exitPerimeter=0;" parent="1" source="2" target="19" edge="1">
                    <mxGeometry relative="1" as="geometry">
                        <mxPoint x="260" y="540.0000000000001" as="sourcePoint"/>
                        <mxPoint x="460.0000000000002" y="561.6600000000002" as="targetPoint"/>
                        <Array as="points">
                            <mxPoint x="40" y="202"/>
                            <mxPoint x="40" y="620"/>
                        </Array>
                    </mxGeometry>
                </mxCell>
                <mxCell id="26" value="" style="endArrow=none;html=1;edgeStyle=orthogonalEdgeStyle;fillColor=#F2CC8F;fontSize=20;fontColor=#FFFFFF;exitX=1;exitY=0.099;exitDx=0;exitDy=0;strokeWidth=2;strokeColor=#901C1C;entryX=1;entryY=0.5;entryDx=0;entryDy=0;exitPerimeter=0;" parent="1" source="8" target="23" edge="1">
                    <mxGeometry relative="1" as="geometry">
                        <mxPoint x="820" y="540.0000000000001" as="sourcePoint"/>
                        <mxPoint x="1020.0000000000002" y="561.6600000000002" as="targetPoint"/>
                        <Array as="points">
                            <mxPoint x="960" y="205"/>
                            <mxPoint x="1080" y="205"/>
                            <mxPoint x="1080" y="618"/>
                        </Array>
                    </mxGeometry>
                </mxCell>
                <mxCell id="32" value="&lt;font color=&quot;#901c1c&quot;&gt;&lt;span style=&quot;font-size: 24px&quot;&gt;&lt;span style=&quot;font-size: 20px&quot;&gt;&lt;i&gt;TO DO: implement in a SQL database in backend&lt;/i&gt;&lt;/span&gt;&lt;/span&gt;&lt;/font&gt;" style="text;html=1;strokeColor=none;fillColor=none;align=center;verticalAlign=middle;whiteSpace=wrap;rounded=0;" parent="1" vertex="1">
                    <mxGeometry x="558" y="478" width="456" height="20" as="geometry"/>
                </mxCell>
            </root>
        </mxGraphModel>
    </diagram>
</mxfile>